<?xml version="1.0" encoding="utf-8"?>
<!-- Generator: Adobe Illustrator 19.0.0, SVG Export Plug-In . SVG Version: 6.00 Build 0)  -->
<svg version="1.1" id="Layer_1" xmlns="http://www.w3.org/2000/svg" xmlns:xlink="http://www.w3.org/1999/xlink" x="0px" y="0px"
	 viewBox="-261 385 89 24" style="enable-background:new -261 385 89 24;" xml:space="preserve">
<style type="text/css">
	.st0{fill:#FFFFFF;}
</style>
<title>Combined Shape</title>
<desc>Created with Sketch.</desc>
<g id="Pages">
	<g id="Home" transform="translate(-676.000000, -602.000000)">
		<g id="Hero">
			<g id="Scroll-arrow" transform="translate(674.000000, 602.000000)">
				<path id="Combined-Shape" class="st0" d="M-259,409c13,0,20.6-24,44.5-24s26.5,24,44.5,24C-156,409-273.6,409-259,409z
					 M-219.7,398.1L-219.7,398.1c-0.4,0.4-0.4,1.1,0,1.5l5,5c0.4,0.4,1.1,0.4,1.5,0l5-5c0.4-0.4,0.4-1.1,0-1.5h0
					c-0.4-0.4-1.1-0.4-1.5,0l-3.4,3.4c-0.4,0.4-1.1,0.4-1.5,0l-3.4-3.4C-218.6,397.7-219.3,397.7-219.7,398.1z"/>
			</g>
		</g>
	</g>
</g>
</svg>
